# xmcd
#
# Track frame offsets:
#	150
#	16257
#	30546
#	46211
#	62688
#	76996
#	91899
#	109293
#	127225
#	141792
#	159420
#	174260
#	190468
#	205674
#	224014
#	239992
#	254409
#	271611
#	287868
#	303975
#	319550
#
# Disc length: 4485 seconds
#
# Revision: 2
# Processed by: cddbd v1.5.2PL0 Copyright (c) Steve Scherf et al.
# Submitted via: EZCDAudioConverter 2.3.5.1
#
DISCID=30118315
DTITLE=최신 트롯 베스트 - CD2
DYEAR=2015
DGENRE=Trot
TTITLE0=김연숙 - 과녁
TTITLE1=한수영 - 당신만이 내 사랑
TTITLE2=박건 - 당신은 내 아내
TTITLE3=장태희 - 백세인생
TTITLE4=강민 - 해운대 밤거리
TTITLE5=김용임 - 비익조
TTITLE6=오승근 - 인생이란 꿈이라오
TTITLE7=한수영 - 사랑인가 봅니다
TTITLE8=문희옥 - 이봐요
TTITLE9=배일호 - 후회합니다
TTITLE10=장민호 - 남자는 말합니다
TTITLE11=조은성 - 곰배령
TTITLE12=장태희 - 도라지
TTITLE13=서정아 - 비비각시
TTITLE14=황진희 - 가락지
TTITLE15=이태호 - 임진강
TTITLE16=왕소연 - 당신을 사랑합니다
TTITLE17=소유찬 - 누구신가요
TTITLE18=박우철 - 연모
TTITLE19=김태현 - 비겁한 이별
TTITLE20=장철웅 - 웃으며 살자
EXTD=
EXTT0=
EXTT1=
EXTT2=
EXTT3=
EXTT4=
EXTT5=
EXTT6=
EXTT7=
EXTT8=
EXTT9=
EXTT10=
EXTT11=
EXTT12=
EXTT13=
EXTT14=
EXTT15=
EXTT16=
EXTT17=
EXTT18=
EXTT19=
EXTT20=
PLAYORDER=
